<?xml version="1.0" encoding="UTF-8"?>
<svg version="1.1" xmlns="http://www.w3.org/2000/svg" width="350" height="350">
<path d="M0 0 C3.33937109 1.1131237 4.04522731 1.95960537 6.22924805 4.60693359 C9.73125923 8.73205334 13.45417927 12.51979396 17.33203125 16.2890625 C18.72246008 17.65708992 20.11241909 19.02559498 21.50195312 20.39453125 C23.64935268 22.50508757 25.79955973 24.6124175 27.95825195 26.71142578 C56.91274768 54.90579546 56.91274768 54.90579546 57.25 75.5625 C57.06251039 90.86165211 50.90667857 102.92509991 40.10205078 113.48144531 C39.33373932 114.2520932 38.56542786 115.02274109 37.77383423 115.81674194 C35.25947095 118.33270532 32.72784037 120.83045803 30.1953125 123.328125 C28.42841008 125.08822728 26.66254758 126.84937405 24.89767456 128.61151123 C20.26606533 133.22976141 15.61922461 137.83239171 10.96936035 142.43225098 C7.18340937 146.1801771 3.41124012 149.9418867 -0.36170769 153.70289993 C-4.88050418 158.20686229 -9.40444305 162.70564214 -13.9296875 167.203125 C-14.78511013 168.05363686 -15.64053276 168.90414871 -16.52187729 169.78043365 C-18.95961283 172.20176931 -21.40080818 174.61955739 -23.84326172 177.03613281 C-24.55313232 177.74174347 -25.26300293 178.44735413 -25.99438477 179.17434692 C-29.96531261 183.09471383 -34.04083515 186.83568724 -38.26311111 190.48365211 C-40.21763012 192.18999659 -42.07038017 193.9678567 -43.88647461 195.82055664 C-44.5375267 196.48136734 -45.1885788 197.14217804 -45.85935974 197.82301331 C-46.53354446 198.51177048 -47.20772919 199.20052765 -47.90234375 199.91015625 C-49.38447229 201.40979517 -50.86690339 202.90913512 -52.34960938 204.40820312 C-54.64783673 206.73735825 -56.94363428 209.06875818 -59.23413086 211.40551758 C-61.47079756 213.68482396 -63.71706929 215.95431013 -65.96484375 218.22265625 C-66.63700424 218.91343765 -67.30916473 219.60421906 -68.00169373 220.31593323 C-77.2414435 229.6044701 -86.67326679 235.27155875 -99.95410156 235.51953125 C-101.33807129 235.50986328 -101.33807129 235.50986328 -102.75 235.5 C-103.71647461 235.49355469 -104.68294922 235.48710937 -105.67871094 235.48046875 C-118.15574633 235.16279549 -128.18053477 231.08317017 -137 222 C-147.34258838 209.53669161 -151.35141792 197.18298428 -150.22314453 181.0546875 C-148.63355091 166.41790426 -136.9239045 156.65427852 -127 146.9375 C-125.40503945 145.37048285 -123.81172417 143.80187655 -122.22143555 142.2301178 C-120.77992055 140.80613993 -119.33348458 139.38714854 -117.88671875 137.96850586 C-115.75161579 135.82372517 -113.76209523 133.59116494 -111.79161072 131.29458618 C-108.16632154 127.13666349 -104.35301605 123.21170771 -100.44750977 119.31811523 C-99.36797531 118.2359523 -99.36797531 118.2359523 -98.26663208 117.13192749 C-95.91071506 114.77164537 -93.55120174 112.41499771 -91.19140625 110.05859375 C-89.53891147 108.4054244 -87.88656508 106.7521067 -86.23435974 105.09864807 C-82.78050235 101.64332094 -79.32485457 98.18979719 -75.86791992 94.73754883 C-71.45207187 90.3273976 -67.04072888 85.91277173 -62.630723 81.49677944 C-59.22234766 78.08477894 -55.81157975 74.67517815 -52.4000988 71.26628304 C-50.77317994 69.64002803 -49.14699466 68.01303878 -47.52157784 66.38528252 C-45.24410099 64.10524697 -42.96340999 61.82847384 -40.68188477 59.55249023 C-40.0203389 58.88892014 -39.35879303 58.22535004 -38.67720032 57.54167175 C-34.82822398 53.70987013 -30.86899362 50.06539124 -26.74581814 46.52970982 C-12.44979483 34.00333797 -4.41608321 18.23878268 0 0 Z " fill="#53CAA4" transform="translate(241,100)"/>
<path d="M0 0 C2.54848389 2.40679135 5.02856225 4.86628382 7.49084473 7.36117554 C8.3946991 8.26357468 9.29855347 9.16597382 10.22979736 10.09571838 C12.12718431 11.99475617 14.02021545 13.89712405 15.90686035 15.80673218 C18.30418661 18.23245988 20.71678425 20.64228277 23.13469315 23.04747486 C25.46945252 25.37353913 27.79220923 27.71150695 30.11584473 30.04867554 C30.9722052 30.90210037 31.82856567 31.75552521 32.71087646 32.6348114 C42.29923844 42.37366738 49.45244699 52.82905116 49.97521973 66.96664429 C48.84492264 88.86615028 34.89515606 102.71783149 20.41662598 117.43026733 C19.40419654 118.46455605 18.39809648 119.50507425 17.39807129 120.55136108 C15.9251294 122.09127655 14.43334887 123.61049641 12.93615723 125.12680054 C11.63170654 126.46883545 11.63170654 126.46883545 10.30090332 127.83798218 C6.76312548 130.48334477 4.97245415 131.18999872 0.53771973 130.90414429 C-2.57902243 129.06028649 -4.93674304 126.47485701 -7.46228027 123.90414429 C-8.47775544 122.91257042 -9.49569978 121.92352148 -10.51556396 120.9364624 C-14.23695757 117.32244168 -17.91752357 113.66814874 -21.59509277 110.00961304 C-22.26428616 109.34449518 -22.93347954 108.67937733 -23.62295151 107.99410439 C-27.16007095 104.4777288 -30.6939869 100.95816853 -34.22546387 97.43612671 C-37.85259139 93.8200823 -41.49125273 90.21587724 -45.13260078 86.61416149 C-47.95158761 83.82141959 -50.76155673 81.01973234 -53.56924057 78.21563148 C-54.90617614 76.88353573 -56.24645975 75.55479066 -57.59027481 74.22963524 C-68.79939683 63.16664382 -78.63932337 52.22616502 -78.98156738 35.66122437 C-78.97202026 34.42021973 -78.97202026 34.42021973 -78.96228027 33.15414429 C-78.95656006 32.28233521 -78.95083984 31.41052612 -78.94494629 30.51229858 C-78.56573825 16.68844177 -72.54621439 6.52554162 -62.71228027 -2.84585571 C-44.11757241 -18.28770367 -17.71494429 -15.07869254 0 0 Z " fill="#16A9CA" transform="translate(169.4622802734375,28.095855712890625)"/>
<path d="M0 0 C2.11609836 1.96145929 4.15804842 3.97979266 6.18915367 6.02918243 C7.35848694 7.18559235 7.35848694 7.18559235 8.5514431 8.36536407 C11.12154373 10.9127893 13.67665455 13.47465752 16.23090172 16.0379715 C18.01303782 17.81487331 19.79569396 19.59125369 21.57884789 21.36713409 C25.31176139 25.0896408 29.03728065 28.81939986 32.75751305 32.55457306 C37.0543083 36.86830109 41.36725 41.16537612 45.68862849 45.45446563 C49.85176359 49.58767203 54.00081117 53.73476985 58.14431381 57.88764954 C59.90637635 59.65053292 61.67229881 61.40956684 63.44210815 63.16467285 C65.9129454 65.61811674 68.36731654 68.08693872 70.81805992 70.56043243 C71.92061623 71.64545044 71.92061623 71.64545044 73.0454464 72.752388 C75.93256233 75.69437248 77.91891384 77.82820119 79.32774925 81.74066925 C78.97258193 88.5080476 73.24952872 92.76275609 68.71112633 97.26551056 C67.95312233 98.0254129 67.19511833 98.78531525 66.41414452 99.56824493 C63.91260789 102.07348014 61.40395464 104.57145303 58.89496422 107.0692215 C57.15489932 108.80809421 55.415204 110.54733683 53.67586327 112.2869339 C50.03315195 115.92808205 46.38710751 119.5658478 42.73847008 123.20105743 C38.0533913 127.86911512 33.37495393 132.54376024 28.69875813 137.22071457 C25.10895264 140.81024868 21.51655106 144.39717481 17.92325592 147.98321533 C16.19661428 149.70666764 14.47058396 151.43073261 12.74516678 153.15541077 C10.33919278 155.55922582 7.92996048 157.95972434 5.51972008 160.35926056 C4.4435392 161.43612122 4.4435392 161.43612122 3.34561729 162.53473663 C2.69089943 163.18518951 2.03618156 163.8356424 1.36162376 164.50580597 C0.79216498 165.07358891 0.2227062 165.64137184 -0.3640089 166.22636032 C-2.68134985 168.33895101 -3.93550558 168.56668624 -7.13237953 168.9285965 C-10.81987953 168.5535965 -10.81987953 168.5535965 -13.69487953 166.2410965 C-16.88272607 162.20940823 -16.94729414 159.3016349 -16.96032143 154.3041153 C-16.96603157 152.99460907 -16.97174171 151.68510284 -16.97762489 150.33591461 C-16.97887024 148.88129435 -16.97999534 147.42667397 -16.98101234 145.97205353 C-16.98564076 144.44279612 -16.99066545 142.91353988 -16.99605751 141.38428497 C-17.00918029 137.22723512 -17.0156261 133.07020142 -17.02006817 128.9131341 C-17.02299878 126.31650862 -17.02710354 123.71988757 -17.03157234 121.12326431 C-17.04524626 113.00049648 -17.05491373 104.87773873 -17.05877423 96.75496018 C-17.06325644 87.37545275 -17.08081228 77.99609095 -17.10977483 68.61662781 C-17.13138113 61.36813849 -17.14147793 54.11969016 -17.14281535 46.87116897 C-17.14386403 42.54109404 -17.14978533 38.21115602 -17.16763496 33.88111496 C-17.18409777 29.80829705 -17.18627995 25.73571924 -17.17749596 21.66287994 C-17.17672465 20.16851789 -17.1810807 18.67414302 -17.19095421 17.17981339 C-17.20364765 15.13892971 -17.19601468 13.09794983 -17.18737221 11.05704498 C-17.18883877 9.91515276 -17.19030533 8.77326054 -17.19181633 7.59676552 C-16.65629497 3.21515548 -14.89804874 0.63176571 -11.81987953 -2.4464035 C-7.4597219 -4.31504249 -3.61341056 -2.87186575 0 0 Z " fill="#546AAD" transform="translate(75.81987953186035,92.44640350341797)"/>
</svg>
