<svg width="1878" height="826" viewBox="0 0 1878 826" fill="none" xmlns="http://www.w3.org/2000/svg">
<path fill-rule="evenodd" clip-rule="evenodd" d="M597 406.5H599L603.5 402V392L596 386.5L589 387.5L584.5 392V402L592 407.5L597 406.5Z" fill="#222325"/>
<path fill-rule="evenodd" clip-rule="evenodd" d="M462 578.5L471 577.5L493 569.5L520 551.5L557 543.5L595 527.5L629 505.5L645 491.5L658.5 477L679.5 449L690.5 426L696.5 406L698.5 393V362L694.5 344L690.5 335L682 324.5L667 315.5L650 312.5L591 313.5L540 320.5L505 329.5L473 341.5L427 365.5L399 382.5L376 393.5L344 401.5L317 402.5L299 399.5L286 393.5H283L277 389.5L265.5 377L266.5 370L281.5 355L291.5 341L297.5 325L299.5 316V285L297.5 280L293 276.5H287L274 289.5L238 304.5L229 310.5L220 319.5L196 307.5L155 300.5L147 296.5L138 288.5H130L127.5 291L125.5 295V303L129.5 324L137.5 342L147.5 356L160 368.5L169 374.5L189 382.5L209 387.5L215 391.5L236.5 427L252.5 450L272.5 473L290 489.5L317 510.5L354 531.5L401 547.5L420 551.5L449 553.5L450.5 557L445.5 567L447.5 576L452 579.5L462 578.5ZM467 561.5L465.5 560L472.5 544L477.5 517V491L479.5 480L477 476.5H469L462 479.5H455L419 445.5H390L384.5 438L378 433.5H366L357.5 440L355.5 444L354.5 454L361 463.5L365 466.5L376 467.5L382 465.5L388 458.5L412 457.5L428 471.5L435.5 479V481L434 482.5L416 483.5L369 482.5L330 476.5L293 466.5L283 460.5L267.5 443L249.5 418L231.5 386L219 375.5L201 368.5L188 365.5L175 359.5L167 353.5L156.5 343L148.5 330L144.5 319V314L146 312.5L159 318.5L181 320.5L198 324.5L211 332.5L219 342.5L226 343.5L231.5 332L241 320.5L251 315.5L272 308.5L283 301.5L284.5 303V311L280.5 327L276.5 336L268.5 346L254.5 359L249.5 367L248.5 377L253.5 388L265 399.5L275 406.5L293 414.5L316 418.5L346 417.5L375 410.5L411 394.5L444 374.5L479 356.5L531 338.5L579 330.5L632 327.5L655 328.5L663 330.5L670 334.5L675.5 341L681.5 357L682.5 390L679.5 402L676 405.5L668 409.5L642 417.5L628 419.5H601L583 437.5L569 448.5L555 456.5L545 459.5L541.5 465L538.5 489L534.5 502L521.5 526L500 547.5L477 559.5L468 562.5L467 561.5ZM539 531.5L537.5 530L538.5 527L541.5 524L544.5 515L548 511.5L580 497.5L609 477.5L631.5 455L649 430.5L660 428.5L671 423.5L673.5 425L665.5 441L648.5 465L616 495.5L590 512.5L578 518.5L555 527.5L539 531.5ZM433 514.5L380 512.5L341 506.5L336 502.5H333L314.5 488L316 486.5H320L328 489.5H334L350 493.5L389 497.5H428L450 495.5L457 493.5H462L463.5 495V509L461 511.5L433 514.5ZM553.5 494L552.5 489L555.5 479V473L581 457.5L595 445.5L606 433.5L628 434.5L629.5 436L620.5 448L594 472.5L568 488.5L553.5 494ZM454 539.5L423 536.5L397 530.5L390.5 527L392 525.5H459L460.5 529L458.5 537L454 539.5ZM371 455.5L367.5 453L366.5 449L369 445.5L373 444.5L376.5 447V453L371 455.5Z" fill="#222325"/>
</svg>
