<svg xmlns="http://www.w3.org/2000/svg" width="1878" height="826" viewBox="0 0 1878 826">
<path d="M597.00,406.50 L599.00,406.50 L603.50,402.00 L603.50,392.00 L596.00,386.50 L589.00,387.50 L584.50,392.00 L584.50,402.00 L592.00,407.50 L597.00,406.50 Z" fill="currentColor" fill-rule="evenodd"/>
<path d="M936.00,529.50 L962.00,527.50 L993.00,517.50 L1014.00,502.50 L1028.50,486.00 L1038.50,468.00 L1044.50,443.00 L1044.50,410.00 L1036.50,382.00 L1028.50,368.00 L1012.00,349.50 L995.00,337.50 L977.00,329.50 L962.00,325.50 L936.00,322.50 L845.00,322.50 L843.50,324.00 L843.50,529.00 L920.00,530.50 L936.00,529.50 Z M928.00,508.50 L871.00,508.50 L869.50,507.00 L869.50,346.00 L871.00,344.50 L936.00,344.50 L966.00,350.50 L983.00,358.50 L996.00,368.50 L1006.50,381.00 L1013.50,394.00 L1017.50,407.00 L1019.50,432.00 L1015.50,455.00 L1007.50,472.00 L995.00,486.50 L979.00,497.50 L961.00,504.50 L928.00,508.50 Z" fill="currentColor" fill-rule="evenodd"/>
<path d="M462.00,578.50 L471.00,577.50 L493.00,569.50 L520.00,551.50 L557.00,543.50 L595.00,527.50 L629.00,505.50 L645.00,491.50 L658.50,477.00 L679.50,449.00 L690.50,426.00 L696.50,406.00 L698.50,393.00 L698.50,362.00 L694.50,344.00 L690.50,335.00 L682.00,324.50 L667.00,315.50 L650.00,312.50 L591.00,313.50 L540.00,320.50 L505.00,329.50 L473.00,341.50 L427.00,365.50 L399.00,382.50 L376.00,393.50 L344.00,401.50 L317.00,402.50 L299.00,399.50 L286.00,393.50 L283.00,393.50 L277.00,389.50 L265.50,377.00 L266.50,370.00 L281.50,355.00 L291.50,341.00 L297.50,325.00 L299.50,316.00 L299.50,285.00 L297.50,280.00 L293.00,276.50 L287.00,276.50 L274.00,289.50 L238.00,304.50 L229.00,310.50 L220.00,319.50 L196.00,307.50 L155.00,300.50 L147.00,296.50 L138.00,288.50 L130.00,288.50 L127.50,291.00 L125.50,295.00 L125.50,303.00 L129.50,324.00 L137.50,342.00 L147.50,356.00 L160.00,368.50 L169.00,374.50 L189.00,382.50 L209.00,387.50 L215.00,391.50 L236.50,427.00 L252.50,450.00 L272.50,473.00 L290.00,489.50 L317.00,510.50 L354.00,531.50 L401.00,547.50 L420.00,551.50 L449.00,553.50 L450.50,557.00 L445.50,567.00 L447.50,576.00 L452.00,579.50 L462.00,578.50 Z M467.00,561.50 L465.50,560.00 L472.50,544.00 L477.50,517.00 L477.50,491.00 L479.50,480.00 L477.00,476.50 L469.00,476.50 L462.00,479.50 L455.00,479.50 L419.00,445.50 L390.00,445.50 L384.50,438.00 L378.00,433.50 L366.00,433.50 L357.50,440.00 L355.50,444.00 L354.50,454.00 L361.00,463.50 L365.00,466.50 L376.00,467.50 L382.00,465.50 L388.00,458.50 L412.00,457.50 L428.00,471.50 L435.50,479.00 L435.50,481.00 L434.00,482.50 L416.00,483.50 L369.00,482.50 L330.00,476.50 L293.00,466.50 L283.00,460.50 L267.50,443.00 L249.50,418.00 L231.50,386.00 L219.00,375.50 L201.00,368.50 L188.00,365.50 L175.00,359.50 L167.00,353.50 L156.50,343.00 L148.50,330.00 L144.50,319.00 L144.50,314.00 L146.00,312.50 L159.00,318.50 L181.00,320.50 L198.00,324.50 L211.00,332.50 L219.00,342.50 L226.00,343.50 L231.50,332.00 L241.00,320.50 L251.00,315.50 L272.00,308.50 L283.00,301.50 L284.50,303.00 L284.50,311.00 L280.50,327.00 L276.50,336.00 L268.50,346.00 L254.50,359.00 L249.50,367.00 L248.50,377.00 L253.50,388.00 L265.00,399.50 L275.00,406.50 L293.00,414.50 L316.00,418.50 L346.00,417.50 L375.00,410.50 L411.00,394.50 L444.00,374.50 L479.00,356.50 L531.00,338.50 L579.00,330.50 L632.00,327.50 L655.00,328.50 L663.00,330.50 L670.00,334.50 L675.50,341.00 L681.50,357.00 L682.50,390.00 L679.50,402.00 L676.00,405.50 L668.00,409.50 L642.00,417.50 L628.00,419.50 L601.00,419.50 L583.00,437.50 L569.00,448.50 L555.00,456.50 L545.00,459.50 L541.50,465.00 L538.50,489.00 L534.50,502.00 L521.50,526.00 L500.00,547.50 L477.00,559.50 L468.00,562.50 L467.00,561.50 Z M539.00,531.50 L537.50,530.00 L538.50,527.00 L541.50,524.00 L544.50,515.00 L548.00,511.50 L580.00,497.50 L609.00,477.50 L631.50,455.00 L649.00,430.50 L660.00,428.50 L671.00,423.50 L673.50,425.00 L665.50,441.00 L648.50,465.00 L616.00,495.50 L590.00,512.50 L578.00,518.50 L555.00,527.50 L539.00,531.50 Z M433.00,514.50 L380.00,512.50 L341.00,506.50 L336.00,502.50 L333.00,502.50 L314.50,488.00 L316.00,486.50 L320.00,486.50 L328.00,489.50 L334.00,489.50 L350.00,493.50 L389.00,497.50 L428.00,497.50 L450.00,495.50 L457.00,493.50 L462.00,493.50 L463.50,495.00 L463.50,509.00 L461.00,511.50 L433.00,514.50 Z M553.50,494.00 L552.50,489.00 L555.50,479.00 L555.50,473.00 L581.00,457.50 L595.00,445.50 L606.00,433.50 L628.00,434.50 L629.50,436.00 L620.50,448.00 L594.00,472.50 L568.00,488.50 L553.50,494.00 Z M454.00,539.50 L423.00,536.50 L397.00,530.50 L390.50,527.00 L392.00,525.50 L459.00,525.50 L460.50,529.00 L458.50,537.00 L454.00,539.50 Z M371.00,455.50 L367.50,453.00 L366.50,449.00 L369.00,445.50 L373.00,444.50 L376.50,447.00 L376.50,453.00 L371.00,455.50 Z" fill="currentColor" fill-rule="evenodd"/>
<path d="M1303.50,528.00 L1303.50,445.00 L1307.50,423.00 L1314.50,410.00 L1329.00,397.50 L1344.00,392.50 L1361.00,392.50 L1362.50,391.00 L1362.50,371.00 L1361.00,369.50 L1350.00,369.50 L1333.00,373.50 L1318.00,381.50 L1304.00,397.50 L1302.50,396.00 L1301.50,374.00 L1300.00,372.50 L1279.50,373.00 L1279.50,529.00 L1303.00,529.50 L1303.50,528.00 Z" fill="currentColor" fill-rule="evenodd"/>
<path d="M1169.00,531.50 L1185.00,529.50 L1202.00,521.50 L1211.00,515.50 L1226.50,499.00 L1233.50,487.00 L1237.50,476.00 L1240.50,458.00 L1239.50,436.00 L1234.50,418.00 L1225.50,402.00 L1214.00,389.50 L1200.00,379.50 L1186.00,373.50 L1174.00,370.50 L1151.00,369.50 L1137.00,371.50 L1134.00,373.50 L1124.00,375.50 L1112.00,381.50 L1104.00,387.50 L1086.50,407.00 L1079.50,421.00 L1075.50,436.00 L1075.50,468.00 L1083.50,491.00 L1091.50,503.00 L1104.00,515.50 L1123.00,526.50 L1140.00,531.50 L1169.00,531.50 Z M1160.00,511.50 L1151.00,511.50 L1137.00,508.50 L1122.00,500.50 L1106.50,483.00 L1102.50,474.00 L1099.50,461.00 L1100.50,436.00 L1105.50,422.00 L1111.50,413.00 L1124.00,400.50 L1131.00,396.50 L1141.00,392.50 L1152.00,390.50 L1174.00,392.50 L1181.00,394.50 L1194.00,402.50 L1207.50,418.00 L1212.50,429.00 L1215.50,441.00 L1214.50,466.00 L1210.50,479.00 L1204.50,489.00 L1187.00,504.50 L1178.00,508.50 L1160.00,511.50 Z" fill="currentColor" fill-rule="evenodd"/>
<path d="M1421.00,590.50 L1426.00,590.50 L1435.00,587.50 L1443.00,582.50 L1449.50,577.00 L1459.50,563.00 L1535.50,391.00 L1541.50,376.00 L1541.00,372.50 L1519.00,372.50 L1516.50,375.00 L1483.50,452.00 L1474.50,474.00 L1474.50,477.00 L1462.00,503.50 L1458.50,501.00 L1455.50,495.00 L1449.50,478.00 L1437.50,454.00 L1403.50,375.00 L1401.00,372.50 L1378.00,372.50 L1376.50,374.00 L1412.50,455.00 L1420.50,470.00 L1420.50,473.00 L1432.50,497.00 L1432.50,500.00 L1442.50,519.00 L1442.50,522.00 L1448.50,532.00 L1448.50,536.00 L1439.50,554.00 L1430.00,565.50 L1421.00,569.50 L1409.00,570.50 L1396.00,567.50 L1384.00,559.50 L1375.50,575.00 L1375.50,578.00 L1382.00,583.50 L1396.00,589.50 L1408.00,591.50 L1421.00,590.50 Z" fill="currentColor" fill-rule="evenodd"/>
</svg>